<?xml version="1.0" encoding="UTF-8"?>
<svg xmlns="http://www.w3.org/2000/svg" xmlns:xlink="http://www.w3.org/1999/xlink" viewBox="0 0 48 48" width="48px" height="48px">
<defs>
<linearGradient id="linear0" gradientUnits="userSpaceOnUse" x1="15.072" y1="13.624" x2="24.111" y2="24.129" gradientTransform="matrix(0.999999,0,0,0.999999,0,0)">
<stop offset="0" style="stop-color:rgb(0%,45.09804%,38.039216%);stop-opacity:1;"/>
<stop offset="1" style="stop-color:rgb(0%,69.01961%,58.431375%);stop-opacity:1;"/>
</linearGradient>
<linearGradient id="linear1" gradientUnits="userSpaceOnUse" x1="26.452999" y1="25.441" x2="36.169998" y2="37.643002" gradientTransform="matrix(0.999999,0,0,0.999999,0,0)">
<stop offset="0" style="stop-color:rgb(0%,65.098041%,55.29412%);stop-opacity:1;"/>
<stop offset="0.03" style="stop-color:rgb(0%,57.254905%,48.627451%);stop-opacity:1;"/>
<stop offset="1" style="stop-color:rgb(0%,57.254905%,48.627451%);stop-opacity:1;"/>
</linearGradient>
<linearGradient id="linear2" gradientUnits="userSpaceOnUse" x1="24" y1="8" x2="24" y2="38.181" gradientTransform="matrix(0.999999,0,0,0.999999,0,0)">
<stop offset="0" style="stop-color:rgb(0%,0%,0%);stop-opacity:0.15;"/>
<stop offset="1" style="stop-color:rgb(0%,0%,0%);stop-opacity:0.03;"/>
</linearGradient>
</defs>
<g id="surface98995975">
<path style=" stroke:none;fill-rule:nonzero;fill:url(#linear0);" d="M 42.484375 40 L 5.515625 40 C 4.125 40 3 38.875 3 37.484375 L 3 10.515625 C 3 9.125 4.125 8 5.515625 8 L 42.484375 8 C 43.875 8 45 9.125 45 10.515625 L 45 37.484375 C 45 38.875 43.875 40 42.484375 40 Z M 42.484375 40 "/>
<path style=" stroke:none;fill-rule:nonzero;fill:url(#linear1);" d="M 42.484375 40 L 8 40 L 45 11 L 45 37.484375 C 45 38.875 43.875 40 42.484375 40 Z M 42.484375 40 "/>
<path style=" stroke:none;fill-rule:nonzero;fill:rgb(29.411766%,96.470588%,85.09804%);fill-opacity:1;" d="M 5.515625 8 L 8 8 L 8 40 L 5.515625 40 C 4.125 40 3 38.875 3 37.484375 L 3 10.515625 C 3 9.125 4.125 8 5.515625 8 Z M 42.484375 8 L 40 8 L 40 40 L 42.484375 40 C 43.875 40 45 38.875 45 37.484375 L 45 10.515625 C 45 9.125 43.875 8 42.484375 8 Z M 42.484375 8 "/>
<path style=" stroke:none;fill-rule:nonzero;fill:url(#linear2);" d="M 42.484375 40 L 30.515625 40 L 3 11.484375 L 3 10.515625 C 3 9.125 4.125 8 5.515625 8 L 42.484375 8 C 43.875 8 45 9.125 45 10.515625 L 45 37.484375 C 45 38.875 43.875 40 42.484375 40 Z M 42.484375 40 "/>
<path style=" stroke:none;fill-rule:nonzero;fill:rgb(0%,65.098041%,55.29412%);fill-opacity:1;" d="M 43.820312 13.101562 L 24 27.457031 L 4.179688 13.101562 C 3.4375 12.566406 3 11.707031 3 10.792969 L 3 10.515625 C 3 9.125 4.125 8 5.515625 8 L 42.484375 8 C 43.875 8 45 9.125 45 10.515625 L 45 10.792969 C 45 11.707031 44.5625 12.566406 43.820312 13.101562 Z M 43.820312 13.101562 "/>
<path style=" stroke:none;fill-rule:nonzero;fill:rgb(29.411766%,96.470588%,85.09804%);fill-opacity:1;" d="M 42.484375 8 L 42.183594 8 L 24 21.171875 L 5.816406 8 L 5.515625 8 C 4.125 8 3 9.125 3 10.515625 L 3 10.792969 C 3 11.707031 3.4375 12.566406 4.179688 13.101562 L 24 27.457031 L 43.820312 13.101562 C 44.5625 12.566406 45 11.707031 45 10.792969 L 45 10.515625 C 45 9.125 43.875 8 42.484375 8 Z M 42.484375 8 "/>
</g>
</svg>
